<svg xmlns="http://www.w3.org/2000/svg" width="420" height="630" viewBox="0 0 420 630" role="img" aria-label="圣杯国王 Tarot Card">
  <defs>
    <radialGradient id="halo" cx="50%" cy="36%" r="62%">
      <stop offset="0%" stop-color="#7fc7ff" stop-opacity="0.92"/>
      <stop offset="42%" stop-color="#7fc7ff" stop-opacity="0.24"/>
      <stop offset="100%" stop-color="#152b47" stop-opacity="0"/>
    </radialGradient>
    <linearGradient id="paper" x1="0%" y1="0%" x2="100%" y2="100%">
      <stop offset="0%" stop-color="#fff3d0"/>
      <stop offset="42%" stop-color="#d9b76d"/>
      <stop offset="100%" stop-color="#152b47"/>
    </linearGradient>
  </defs>
  <rect width="420" height="630" rx="30" fill="#152b47"/>
  <rect x="18" y="18" width="384" height="594" rx="22" fill="url(#paper)" opacity="0.9"/>
  <rect x="28" y="28" width="364" height="574" rx="18" fill="#152b47" opacity="0.86"/>
  <rect x="42" y="42" width="336" height="546" rx="14" fill="none" stroke="#7fc7ff" stroke-width="2.4" opacity="0.72"/>
  <rect x="58" y="58" width="304" height="514" rx="8" fill="none" stroke="#fff3c4" stroke-width="1" opacity="0.34"/>
  <circle cx="210" cy="250" r="154" fill="url(#halo)"/>
  <path d="M82 435 C132 360 156 280 125.20243102825373 208.85336434878764 C262 306 292 358 338 435" fill="none" stroke="#7fc7ff" stroke-width="4" opacity="0.28"/>
  <path d="M98 458 C154 424 268 424 324 458" fill="none" stroke="#fff5cf" stroke-width="2" opacity="0.28"/>
  <circle cx="210" cy="250" r="92" fill="none" stroke="#7fc7ff" stroke-width="2.5" opacity="0.74"/>
  <circle cx="210" cy="250" r="62" fill="none" stroke="#fff5cf" stroke-width="1.5" opacity="0.42"/>
  <text x="210" y="275" text-anchor="middle" font-family="Georgia, serif" font-size="88" fill="#7fc7ff">♢</text>
  <text x="210" y="92" text-anchor="middle" font-family="Georgia, serif" font-size="20" fill="#fff2c9" letter-spacing="3">CUPS</text>
  <text x="210" y="120" text-anchor="middle" font-family="'Noto Serif SC', serif" font-size="26" fill="#7fc7ff" font-weight="700">圣杯国王</text>
  <text x="210" y="515" text-anchor="middle" font-family="Georgia, serif" font-size="22" fill="#fff2c9">King of Cups</text>
  <text x="210" y="548" text-anchor="middle" font-family="Georgia, serif" font-size="16" fill="#7fc7ff" letter-spacing="4">14</text>
  <g opacity="0.58" fill="#7fc7ff">
    <circle cx="94" cy="94" r="4"/>
    <circle cx="326" cy="94" r="4"/>
    <circle cx="94" cy="536" r="4"/>
    <circle cx="326" cy="536" r="4"/>
  </g>
  <g opacity="0.08" stroke="#fff6d1" stroke-width="1">
    <path d="M60 160 H360"/>
    <path d="M60 472 H360"/>
    <path d="M126 58 V572"/>
    <path d="M294 58 V572"/>
  </g>
</svg>